<svg width="20" height="21" viewBox="0 0 20 21" fill="none" xmlns="http://www.w3.org/2000/svg">
<path d="M10 2.81793C6.68632 2.81793 4.00003 5.50422 4.00003 8.81793V12.4037L3.29292 13.1108C3.00692 13.3968 2.92137 13.8269 3.07615 14.2006C3.23093 14.5743 3.59557 14.8179 4.00003 14.8179H16C16.4045 14.8179 16.7691 14.5743 16.9239 14.2006C17.0787 13.8269 16.9931 13.3968 16.7071 13.1108L16 12.4037V8.81793C16 5.50422 13.3137 2.81793 10 2.81793Z" fill="#2C365B"/>
<path d="M10 18.8179C8.34315 18.8179 7 17.4748 7 15.8179H13C13 17.4748 11.6569 18.8179 10 18.8179Z" fill="#2C365B"/>
</svg>
