<svg width="24" height="24" viewBox="0 0 24 24" fill="none" xmlns="http://www.w3.org/2000/svg">
<g filter="url(#filter0_d_52_2902)">
<path fillRule="evenodd" clipRule="evenodd" d="M4 5C4 3.89543 4.89543 3 6 3H18C19.1046 3 20 3.89543 20 5V7C20 8.10457 19.1046 9 18 9H6C4.89543 9 4 8.10457 4 7V5ZM18 6C18 6.55228 17.5523 7 17 7C16.4477 7 16 6.55228 16 6C16 5.44772 16.4477 5 17 5C17.5523 5 18 5.44772 18 6Z" fill="#111827"/>
<path fillRule="evenodd" clipRule="evenodd" d="M4 13C4 11.8954 4.89543 11 6 11H18C19.1046 11 20 11.8954 20 13V15C20 16.1046 19.1046 17 18 17H6C4.89543 17 4 16.1046 4 15V13ZM18 14C18 14.5523 17.5523 15 17 15C16.4477 15 16 14.5523 16 14C16 13.4477 16.4477 13 17 13C17.5523 13 18 13.4477 18 14Z" fill="#111827"/>
</g>
<defs>
<filter id="filter0_d_52_2902" x="-2" y="0" width="28" height="28" filterUnits="userSpaceOnUse" color-interpolation-filters="sRGB">
<feFlood flood-opacity="0" result="BackgroundImageFix"/>
<feColorMatrix in="SourceAlpha" type="matrix" values="0 0 0 0 0 0 0 0 0 0 0 0 0 0 0 0 0 0 127 0" result="hardAlpha"/>
<feOffset dy="4"/>
<feGaussianBlur stdDeviation="2"/>
<feComposite in2="hardAlpha" operator="out"/>
<feColorMatrix type="matrix" values="0 0 0 0 0 0 0 0 0 0 0 0 0 0 0 0 0 0 0.25 0"/>
<feBlend mode="normal" in2="BackgroundImageFix" result="effect1_dropShadow_52_2902"/>
<feBlend mode="normal" in="SourceGraphic" in2="effect1_dropShadow_52_2902" result="shape"/>
</filter>
</defs>
</svg>
