<svg width="14" height="14" viewBox="0 0 14 14" fill="none" xmlns="http://www.w3.org/2000/svg">
<path fill-rule="evenodd" clip-rule="evenodd" d="M0 2.33333C0 1.04467 1.04467 0 2.33333 0H11.6667C12.9553 0 14 1.04467 14 2.33333V11.6667C14 12.9553 12.9553 14 11.6667 14H2.33333C1.04467 14 0 12.9553 0 11.6667V2.33333ZM2.33333 0.933333C1.56013 0.933333 0.933333 1.56013 0.933333 2.33333V11.6667C0.933333 12.4398 1.56013 13.0667 2.33333 13.0667H11.6667C12.4398 13.0667 13.0667 12.4398 13.0667 11.6667V2.33333C13.0667 1.56013 12.4398 0.933333 11.6667 0.933333H2.33333Z" fill="black"/>
<path fill-rule="evenodd" clip-rule="evenodd" d="M5.55062 4.92459C5.47156 4.76649 5.31 4.66663 5.13323 4.66663C4.95648 4.66663 4.79489 4.76649 4.71584 4.92459L2.84918 8.65793C2.73391 8.88847 2.82735 9.16875 3.05787 9.28401C3.2884 9.39928 3.56871 9.30585 3.68397 9.07532L4.02166 8.39996H6.24483L6.58251 9.07532C6.69778 9.30585 6.97806 9.39928 7.20859 9.28401C7.43912 9.16875 7.53255 8.88847 7.41728 8.65793L5.55062 4.92459ZM5.77816 7.46663L5.13323 6.17676L4.48833 7.46663H5.77816Z" fill="black"/>
<path fill-rule="evenodd" clip-rule="evenodd" d="M9.80004 4.66663C10.0577 4.66663 10.2667 4.87556 10.2667 5.13329V8.86663C10.2667 9.12432 10.0577 9.33329 9.80004 9.33329C9.54235 9.33329 9.33337 9.12432 9.33337 8.86663V5.13329C9.33337 4.87556 9.54235 4.66663 9.80004 4.66663Z" fill="black"/>
</svg>
