<svg width="17" height="20" viewBox="0 0 17 20" fill="none" xmlns="http://www.w3.org/2000/svg">
<path fillRule="evenodd" clip-rule="evenodd" d="M8.25824 3C8.47262 3 8.67822 3.10536 8.82981 3.29289L11.2548 6.29289C11.5705 6.68342 11.5705 7.31658 11.2548 7.70711C10.9391 8.09763 10.4273 8.09763 10.1117 7.70711L8.25824 5.41421L6.40481 7.70711C6.08914 8.09763 5.57733 8.09763 5.26166 7.70711C4.94598 7.31658 4.94598 6.68342 5.26166 6.29289L7.68666 3.29289C7.83825 3.10536 8.04385 3 8.25824 3ZM5.26166 12.2929C5.57733 11.9024 6.08914 11.9024 6.40481 12.2929L8.25824 14.5858L10.1117 12.2929C10.4273 11.9024 10.9391 11.9024 11.2548 12.2929C11.5705 12.6834 11.5705 13.3166 11.2548 13.7071L8.82981 16.7071C8.51414 17.0976 8.00233 17.0976 7.68666 16.7071L5.26166 13.7071C4.94598 13.3166 4.94598 12.6834 5.26166 12.2929Z" fill="#111827"/>
</svg>
